<svg xmlns="http://www.w3.org/2000/svg" width="34.508" height="34.508" viewBox="0 0 34.508 34.508">
    <path data-name="Path 61889" d="M0 0h34.508v34.508H0z" style="fill:none"/>
    <path data-name="Path 61890" d="M27.822 12.684a10.773 10.773 0 0 0-20.13-2.875 8.623 8.623 0 0 0 .935 17.2h18.692a7.169 7.169 0 0 0 .5-14.321zm-.5 11.445H8.627a5.747 5.747 0 0 1-.633-11.459l1.538-.158.719-1.366A7.889 7.889 0 0 1 25 13.245l.431 2.157 2.2.158a4.29 4.29 0 0 1-.316 8.569zM11.5 16.94h3.666v4.313h4.17V16.94h3.666l-5.751-5.751z" transform="translate(0 1.751)" style="fill:#d9d9d9"/>
</svg>
