<svg xmlns="http://www.w3.org/2000/svg" width="23.056" height="32" viewBox="0 0 23.056 32">
    <path data-name="Path 61824" d="m169.143 35.036-1.332 2.351a.8.8 0 0 1-1.45-.134l-1.806-5.225a4.781 4.781 0 0 0 3.167-1.959.157.157 0 0 1 .128-.069h.049a4.725 4.725 0 0 0 3.918-.4l1.783 5.156a.8.8 0 0 1-1.061 1l-2.508-1.029a.722.722 0 0 0-.888.31zm-14.041.718 2.521-1.029a.722.722 0 0 1 .9.326l1.337 2.349a.8.8 0 0 0 1.45-.134l1.806-5.225a4.781 4.781 0 0 1-3.167-1.959.157.157 0 0 0-.127-.065h-.049a4.725 4.725 0 0 1-3.919-.4l-1.8 5.143a.8.8 0 0 0 1.058 1zm8.725-13.29a4.689 4.689 0 1 0-3.311-1.372 4.686 4.686 0 0 0 3.311 1.372zm-11.037-3.21a2.465 2.465 0 0 0 0-2.939 2.466 2.466 0 0 1 1.241-3.831 2.465 2.465 0 0 0 1.731-2.38 2.462 2.462 0 0 1 3.256-2.354 2.459 2.459 0 0 0 2.8-.908 2.465 2.465 0 0 1 4.023 0 2.459 2.459 0 0 0 2.8.908 2.462 2.462 0 0 1 3.265 2.364 2.465 2.465 0 0 0 1.721 2.371 2.466 2.466 0 0 1 1.241 3.824 2.465 2.465 0 0 0 0 2.939 2.465 2.465 0 0 1-1.241 3.83 2.465 2.465 0 0 0-1.731 2.38 2.462 2.462 0 0 1-3.265 2.364 2.465 2.465 0 0 0-2.8.911 2.465 2.465 0 0 1-4.023 0 2.465 2.465 0 0 0-2.8-.911 2.462 2.462 0 0 1-3.265-2.364 2.466 2.466 0 0 0-1.711-2.38 2.465 2.465 0 0 1-1.241-3.824zm4.043-1.473a7 7 0 1 0 2.052-4.943 7 7 0 0 0-2.052 4.943z" transform="translate(-152.299 -5.802)" style="fill:#4b3b97"/>
</svg>
