<svg xmlns="http://www.w3.org/2000/svg" width="20" height="20" viewBox="0 0 20 20">
    <path d="M10.64.64a10 10 0 1 0 10 10 10 10 0 0 0-10-10zm4.068 8.191c0 .085.005.171.005.254a5.6 5.6 0 0 1-8.622 4.72 3.849 3.849 0 0 0 .47.026 3.947 3.947 0 0 0 2.446-.842 1.975 1.975 0 0 1-1.84-1.367 2.029 2.029 0 0 0 .37.035 1.976 1.976 0 0 0 .519-.069 1.971 1.971 0 0 1-1.58-1.931v-.024a1.971 1.971 0 0 0 .893.247 1.974 1.974 0 0 1-.609-2.632 5.6 5.6 0 0 0 4.059 2.059 1.933 1.933 0 0 1-.051-.45 1.97 1.97 0 0 1 3.407-1.347 3.962 3.962 0 0 0 1.25-.478 1.978 1.978 0 0 1-.866 1.09 3.969 3.969 0 0 0 1.132-.311 3.986 3.986 0 0 1-.982 1.02z" transform="translate(-.64 -.64)" style="fill:#95989a"/>
</svg>
