<svg xmlns="http://www.w3.org/2000/svg" width="20" height="20" viewBox="0 0 20 20">
    <path d="M10.64.64a10 10 0 1 0 10 10 10 10 0 0 0-10-10zm1.988 6.72c-.385 0-.658.367-.658 1.071a2.06 2.06 0 0 0 2.1 2.262 3.1 3.1 0 0 0 .686-.08v1.117a5.29 5.29 0 0 1-1.118.128A9.453 9.453 0 0 1 10.96 15.2a.828.828 0 0 1-.915-.019c-.582-.347-2.779-2.151-3.514-7.821h1.594a11.394 11.394 0 0 0 2.462 6.454 8.917 8.917 0 0 0 1.613-2.285 3.393 3.393 0 0 1-1.717-3.117 2.208 2.208 0 0 1 2.189-2.46c1.34 0 2.074.835 2.074 2.272a4.1 4.1 0 0 1-.327 1.613 1.218 1.218 0 0 1-1.355-.437 3.938 3.938 0 0 0 .175-1.04c0-.667-.243-1-.611-1z" transform="translate(-.64 -.64)" style="fill:#95989a"/>
</svg>
